<svg width="1440" height="4037" viewBox="0 0 1440 4037" fill="none" xmlns="http://www.w3.org/2000/svg">
<g clip-path="url(#clip0_112_162)">
<line x1="40.0029" y1="835" x2="40.0029" stroke="white" stroke-opacity="0.15"/>
<line x1="80.5" y1="835" x2="80.5" stroke="white" stroke-opacity="0.15"/>
<line x1="120.5" y1="835" x2="120.5" stroke="white" stroke-opacity="0.15"/>
<line x1="160.997" y1="835" x2="160.997" stroke="white" stroke-opacity="0.15"/>
<line x1="200.5" y1="835" x2="200.5" stroke="white" stroke-opacity="0.15"/>
<line x1="240.997" y1="835" x2="240.997" stroke="white" stroke-opacity="0.15"/>
<line x1="280.997" y1="835" x2="280.997" stroke="white" stroke-opacity="0.15"/>
<line x1="321.494" y1="835" x2="321.494" stroke="white" stroke-opacity="0.15"/>
<line x1="360.5" y1="835" x2="360.5" stroke="white" stroke-opacity="0.15"/>
<line x1="400.997" y1="835" x2="400.997" stroke="white" stroke-opacity="0.15"/>
<line x1="440.997" y1="835" x2="440.997" stroke="white" stroke-opacity="0.15"/>
<line x1="481.494" y1="835" x2="481.494" stroke="white" stroke-opacity="0.15"/>
<line x1="520.997" y1="835" x2="520.997" stroke="white" stroke-opacity="0.15"/>
<line x1="561.494" y1="835" x2="561.494" stroke="white" stroke-opacity="0.15"/>
<line x1="601.494" y1="835" x2="601.494" stroke="white" stroke-opacity="0.15"/>
<line x1="641.991" y1="835" x2="641.991" stroke="white" stroke-opacity="0.15"/>
<line x1="682.5" y1="835" x2="682.5" stroke="white" stroke-opacity="0.15"/>
<line x1="722.997" y1="835" x2="722.997" stroke="white" stroke-opacity="0.15"/>
<line x1="762.997" y1="835" x2="762.997" stroke="white" stroke-opacity="0.15"/>
<line x1="803.494" y1="835" x2="803.494" stroke="white" stroke-opacity="0.15"/>
<line x1="842.997" y1="835" x2="842.997" stroke="white" stroke-opacity="0.15"/>
<line x1="883.494" y1="835" x2="883.494" stroke="white" stroke-opacity="0.15"/>
<line x1="923.494" y1="835" x2="923.494" stroke="white" stroke-opacity="0.15"/>
<line x1="963.991" y1="835" x2="963.991" stroke="white" stroke-opacity="0.15"/>
<line x1="1003" y1="835" x2="1003" stroke="white" stroke-opacity="0.15"/>
<line x1="1043.49" y1="835" x2="1043.49" stroke="white" stroke-opacity="0.15"/>
<line x1="1083.49" y1="835" x2="1083.49" stroke="white" stroke-opacity="0.15"/>
<line x1="1123.99" y1="835" x2="1123.99" stroke="white" stroke-opacity="0.15"/>
<line x1="1163.49" y1="835" x2="1163.49" stroke="white" stroke-opacity="0.15"/>
<line x1="1203.99" y1="835" x2="1203.99" stroke="white" stroke-opacity="0.15"/>
<line x1="1243.99" y1="835" x2="1243.99" stroke="white" stroke-opacity="0.15"/>
<line x1="1284.49" y1="835" x2="1284.49" stroke="white" stroke-opacity="0.15"/>
<line x1="1324.5" y1="835" x2="1324.5" stroke="white" stroke-opacity="0.15"/>
<line x1="1365" y1="835" x2="1365" stroke="white" stroke-opacity="0.15"/>
<line x1="1404.5" y1="835" x2="1404.5" stroke="white" stroke-opacity="0.15"/>
<line y1="40" x2="1440" y2="40" stroke="white" stroke-opacity="0.15"/>
<line y1="80.5" x2="1440" y2="80.5" stroke="white" stroke-opacity="0.15"/>
<line y1="119.5" x2="1440" y2="119.5" stroke="white" stroke-opacity="0.15"/>
<line y1="160" x2="1440" y2="160" stroke="white" stroke-opacity="0.15"/>
<line y1="200.5" x2="1440" y2="200.5" stroke="white" stroke-opacity="0.15"/>
<line y1="241" x2="1440" y2="241" stroke="white" stroke-opacity="0.15"/>
<line y1="280" x2="1440" y2="280" stroke="white" stroke-opacity="0.15"/>
<line y1="320.5" x2="1440" y2="320.5" stroke="white" stroke-opacity="0.15"/>
<line y1="360.5" x2="1440" y2="360.5" stroke="white" stroke-opacity="0.15"/>
<line y1="401" x2="1440" y2="401" stroke="white" stroke-opacity="0.15"/>
<line y1="440" x2="1440" y2="440" stroke="white" stroke-opacity="0.15"/>
<line y1="480.5" x2="1440" y2="480.5" stroke="white" stroke-opacity="0.15"/>
<line y1="521" x2="1440" y2="521" stroke="white" stroke-opacity="0.15"/>
<line y1="561.5" x2="1440" y2="561.5" stroke="white" stroke-opacity="0.15"/>
<line y1="600.5" x2="1440" y2="600.5" stroke="white" stroke-opacity="0.15"/>
<line y1="641" x2="1440" y2="641" stroke="white" stroke-opacity="0.15"/>
<line y1="681.5" x2="1440" y2="681.5" stroke="white" stroke-opacity="0.15"/>
<line y1="722" x2="1440" y2="722" stroke="white" stroke-opacity="0.15"/>
<line y1="761" x2="1440" y2="761" stroke="white" stroke-opacity="0.15"/>
<line y1="801.5" x2="1440" y2="801.5" stroke="white" stroke-opacity="0.15"/>
</g>
<g clip-path="url(#clip1_112_162)">
<line x1="40.0029" y1="1670" x2="40.0029" y2="835" stroke="white" stroke-opacity="0.15"/>
<line x1="80.5" y1="1670" x2="80.5" y2="835" stroke="white" stroke-opacity="0.15"/>
<line x1="120.5" y1="1670" x2="120.5" y2="835" stroke="white" stroke-opacity="0.15"/>
<line x1="160.997" y1="1670" x2="160.997" y2="835" stroke="white" stroke-opacity="0.15"/>
<line x1="200.5" y1="1670" x2="200.5" y2="835" stroke="white" stroke-opacity="0.15"/>
<line x1="240.997" y1="1670" x2="240.997" y2="835" stroke="white" stroke-opacity="0.15"/>
<line x1="280.997" y1="1670" x2="280.997" y2="835" stroke="white" stroke-opacity="0.15"/>
<line x1="321.494" y1="1670" x2="321.494" y2="835" stroke="white" stroke-opacity="0.15"/>
<line x1="360.5" y1="1670" x2="360.5" y2="835" stroke="white" stroke-opacity="0.15"/>
<line x1="400.997" y1="1670" x2="400.997" y2="835" stroke="white" stroke-opacity="0.15"/>
<line x1="440.997" y1="1670" x2="440.997" y2="835" stroke="white" stroke-opacity="0.15"/>
<line x1="481.494" y1="1670" x2="481.494" y2="835" stroke="white" stroke-opacity="0.15"/>
<line x1="520.997" y1="1670" x2="520.997" y2="835" stroke="white" stroke-opacity="0.15"/>
<line x1="561.494" y1="1670" x2="561.494" y2="835" stroke="white" stroke-opacity="0.15"/>
<line x1="601.494" y1="1670" x2="601.494" y2="835" stroke="white" stroke-opacity="0.15"/>
<line x1="641.991" y1="1670" x2="641.991" y2="835" stroke="white" stroke-opacity="0.15"/>
<line x1="682.5" y1="1670" x2="682.5" y2="835" stroke="white" stroke-opacity="0.15"/>
<line x1="722.997" y1="1670" x2="722.997" y2="835" stroke="white" stroke-opacity="0.15"/>
<line x1="762.997" y1="1670" x2="762.997" y2="835" stroke="white" stroke-opacity="0.15"/>
<line x1="803.494" y1="1670" x2="803.494" y2="835" stroke="white" stroke-opacity="0.15"/>
<line x1="842.997" y1="1670" x2="842.997" y2="835" stroke="white" stroke-opacity="0.15"/>
<line x1="883.494" y1="1670" x2="883.494" y2="835" stroke="white" stroke-opacity="0.15"/>
<line x1="923.494" y1="1670" x2="923.494" y2="835" stroke="white" stroke-opacity="0.15"/>
<line x1="963.991" y1="1670" x2="963.991" y2="835" stroke="white" stroke-opacity="0.15"/>
<line x1="1003" y1="1670" x2="1003" y2="835" stroke="white" stroke-opacity="0.15"/>
<line x1="1043.49" y1="1670" x2="1043.49" y2="835" stroke="white" stroke-opacity="0.15"/>
<line x1="1083.49" y1="1670" x2="1083.49" y2="835" stroke="white" stroke-opacity="0.15"/>
<line x1="1123.99" y1="1670" x2="1123.99" y2="835" stroke="white" stroke-opacity="0.15"/>
<line x1="1163.49" y1="1670" x2="1163.49" y2="835" stroke="white" stroke-opacity="0.15"/>
<line x1="1203.99" y1="1670" x2="1203.99" y2="835" stroke="white" stroke-opacity="0.15"/>
<line x1="1243.99" y1="1670" x2="1243.99" y2="835" stroke="white" stroke-opacity="0.15"/>
<line x1="1284.49" y1="1670" x2="1284.49" y2="835" stroke="white" stroke-opacity="0.15"/>
<line x1="1324.5" y1="1670" x2="1324.5" y2="835" stroke="white" stroke-opacity="0.15"/>
<line x1="1365" y1="1670" x2="1365" y2="835" stroke="white" stroke-opacity="0.15"/>
<line x1="1404.5" y1="1670" x2="1404.5" y2="835" stroke="white" stroke-opacity="0.15"/>
<line y1="876.094" x2="1440" y2="876.094" stroke="white" stroke-opacity="0.15"/>
<line y1="836.5" x2="1440" y2="836.5" stroke="white" stroke-opacity="0.15"/>
<line y1="914.69" x2="1440" y2="914.69" stroke="white" stroke-opacity="0.15"/>
<line y1="953.783" x2="1440" y2="953.783" stroke="white" stroke-opacity="0.15"/>
<line y1="994.379" x2="1440" y2="994.379" stroke="white" stroke-opacity="0.15"/>
<line y1="1034.98" x2="1440" y2="1034.98" stroke="white" stroke-opacity="0.15"/>
<line y1="1075.57" x2="1440" y2="1075.57" stroke="white" stroke-opacity="0.15"/>
<line y1="1114.66" x2="1440" y2="1114.66" stroke="white" stroke-opacity="0.15"/>
<line y1="1155.26" x2="1440" y2="1155.26" stroke="white" stroke-opacity="0.15"/>
<line y1="1195.36" x2="1440" y2="1195.36" stroke="white" stroke-opacity="0.15"/>
<line y1="1235.95" x2="1440" y2="1235.95" stroke="white" stroke-opacity="0.15"/>
<line y1="1275.05" x2="1440" y2="1275.05" stroke="white" stroke-opacity="0.15"/>
<line y1="1315.64" x2="1440" y2="1315.64" stroke="white" stroke-opacity="0.15"/>
<line y1="1356.24" x2="1440" y2="1356.24" stroke="white" stroke-opacity="0.15"/>
<line y1="1396.83" x2="1440" y2="1396.83" stroke="white" stroke-opacity="0.15"/>
<line y1="1435.93" x2="1440" y2="1435.93" stroke="white" stroke-opacity="0.15"/>
<line y1="1476.52" x2="1440" y2="1476.52" stroke="white" stroke-opacity="0.15"/>
<line y1="1517.12" x2="1440" y2="1517.12" stroke="white" stroke-opacity="0.15"/>
<line y1="1557.72" x2="1440" y2="1557.72" stroke="white" stroke-opacity="0.15"/>
<line y1="1596.81" x2="1440" y2="1596.81" stroke="white" stroke-opacity="0.15"/>
<line y1="1637.4" x2="1440" y2="1637.4" stroke="white" stroke-opacity="0.15"/>
</g>
<g clip-path="url(#clip2_112_162)">
<line x1="40.0029" y1="2505" x2="40.0029" y2="1670" stroke="white" stroke-opacity="0.15"/>
<line x1="80.5" y1="2505" x2="80.5" y2="1670" stroke="white" stroke-opacity="0.15"/>
<line x1="120.5" y1="2505" x2="120.5" y2="1670" stroke="white" stroke-opacity="0.15"/>
<line x1="160.997" y1="2505" x2="160.997" y2="1670" stroke="white" stroke-opacity="0.15"/>
<line x1="200.5" y1="2505" x2="200.5" y2="1670" stroke="white" stroke-opacity="0.15"/>
<line x1="240.997" y1="2505" x2="240.997" y2="1670" stroke="white" stroke-opacity="0.15"/>
<line x1="280.997" y1="2505" x2="280.997" y2="1670" stroke="white" stroke-opacity="0.15"/>
<line x1="321.494" y1="2505" x2="321.494" y2="1670" stroke="white" stroke-opacity="0.15"/>
<line x1="360.5" y1="2505" x2="360.5" y2="1670" stroke="white" stroke-opacity="0.15"/>
<line x1="400.997" y1="2505" x2="400.997" y2="1670" stroke="white" stroke-opacity="0.15"/>
<line x1="440.997" y1="2505" x2="440.997" y2="1670" stroke="white" stroke-opacity="0.15"/>
<line x1="481.494" y1="2505" x2="481.494" y2="1670" stroke="white" stroke-opacity="0.15"/>
<line x1="520.997" y1="2505" x2="520.997" y2="1670" stroke="white" stroke-opacity="0.15"/>
<line x1="561.494" y1="2505" x2="561.494" y2="1670" stroke="white" stroke-opacity="0.15"/>
<line x1="601.494" y1="2505" x2="601.494" y2="1670" stroke="white" stroke-opacity="0.15"/>
<line x1="641.991" y1="2505" x2="641.991" y2="1670" stroke="white" stroke-opacity="0.15"/>
<line x1="682.5" y1="2505" x2="682.5" y2="1670" stroke="white" stroke-opacity="0.15"/>
<line x1="722.997" y1="2505" x2="722.997" y2="1670" stroke="white" stroke-opacity="0.15"/>
<line x1="762.997" y1="2505" x2="762.997" y2="1670" stroke="white" stroke-opacity="0.15"/>
<line x1="803.494" y1="2505" x2="803.494" y2="1670" stroke="white" stroke-opacity="0.15"/>
<line x1="842.997" y1="2505" x2="842.997" y2="1670" stroke="white" stroke-opacity="0.15"/>
<line x1="883.494" y1="2505" x2="883.494" y2="1670" stroke="white" stroke-opacity="0.15"/>
<line x1="923.494" y1="2505" x2="923.494" y2="1670" stroke="white" stroke-opacity="0.15"/>
<line x1="963.991" y1="2505" x2="963.991" y2="1670" stroke="white" stroke-opacity="0.15"/>
<line x1="1003" y1="2505" x2="1003" y2="1670" stroke="white" stroke-opacity="0.15"/>
<line x1="1043.49" y1="2505" x2="1043.49" y2="1670" stroke="white" stroke-opacity="0.15"/>
<line x1="1083.49" y1="2505" x2="1083.49" y2="1670" stroke="white" stroke-opacity="0.15"/>
<line x1="1123.99" y1="2505" x2="1123.99" y2="1670" stroke="white" stroke-opacity="0.15"/>
<line x1="1163.49" y1="2505" x2="1163.49" y2="1670" stroke="white" stroke-opacity="0.15"/>
<line x1="1203.99" y1="2505" x2="1203.99" y2="1670" stroke="white" stroke-opacity="0.15"/>
<line x1="1243.99" y1="2505" x2="1243.99" y2="1670" stroke="white" stroke-opacity="0.15"/>
<line x1="1284.49" y1="2505" x2="1284.49" y2="1670" stroke="white" stroke-opacity="0.15"/>
<line x1="1324.5" y1="2505" x2="1324.5" y2="1670" stroke="white" stroke-opacity="0.15"/>
<line x1="1365" y1="2505" x2="1365" y2="1670" stroke="white" stroke-opacity="0.15"/>
<line x1="1404.5" y1="2505" x2="1404.5" y2="1670" stroke="white" stroke-opacity="0.15"/>
<line y1="1710" x2="1440" y2="1710" stroke="white" stroke-opacity="0.15"/>
<line y1="1750.5" x2="1440" y2="1750.5" stroke="white" stroke-opacity="0.15"/>
<line y1="1789.5" x2="1440" y2="1789.5" stroke="white" stroke-opacity="0.15"/>
<line y1="1830" x2="1440" y2="1830" stroke="white" stroke-opacity="0.15"/>
<line y1="1870.5" x2="1440" y2="1870.5" stroke="white" stroke-opacity="0.15"/>
<line y1="1911" x2="1440" y2="1911" stroke="white" stroke-opacity="0.15"/>
<line y1="1950" x2="1440" y2="1950" stroke="white" stroke-opacity="0.15"/>
<line y1="1990.5" x2="1440" y2="1990.5" stroke="white" stroke-opacity="0.15"/>
<line y1="2030.5" x2="1440" y2="2030.5" stroke="white" stroke-opacity="0.15"/>
<line y1="2071" x2="1440" y2="2071" stroke="white" stroke-opacity="0.15"/>
<line y1="2110" x2="1440" y2="2110" stroke="white" stroke-opacity="0.15"/>
<line y1="2150.5" x2="1440" y2="2150.5" stroke="white" stroke-opacity="0.15"/>
<line y1="2191" x2="1440" y2="2191" stroke="white" stroke-opacity="0.15"/>
<line y1="2231.5" x2="1440" y2="2231.5" stroke="white" stroke-opacity="0.15"/>
<line y1="2270.5" x2="1440" y2="2270.5" stroke="white" stroke-opacity="0.15"/>
<line y1="2311" x2="1440" y2="2311" stroke="white" stroke-opacity="0.15"/>
<line y1="2351.5" x2="1440" y2="2351.5" stroke="white" stroke-opacity="0.15"/>
<line y1="2392" x2="1440" y2="2392" stroke="white" stroke-opacity="0.15"/>
<line y1="2431" x2="1440" y2="2431" stroke="white" stroke-opacity="0.15"/>
<line y1="2471.5" x2="1440" y2="2471.5" stroke="white" stroke-opacity="0.15"/>
<line y1="1672.5" x2="1440" y2="1672.5" stroke="white" stroke-opacity="0.15"/>
</g>
<g clip-path="url(#clip3_112_162)">
<line x1="40.0029" y1="3340" x2="40.0029" y2="2505" stroke="white" stroke-opacity="0.15"/>
<line x1="80.5" y1="3340" x2="80.5" y2="2505" stroke="white" stroke-opacity="0.15"/>
<line x1="120.5" y1="3340" x2="120.5" y2="2505" stroke="white" stroke-opacity="0.15"/>
<line x1="160.997" y1="3340" x2="160.997" y2="2505" stroke="white" stroke-opacity="0.15"/>
<line x1="200.5" y1="3340" x2="200.5" y2="2505" stroke="white" stroke-opacity="0.15"/>
<line x1="240.997" y1="3340" x2="240.997" y2="2505" stroke="white" stroke-opacity="0.15"/>
<line x1="280.997" y1="3340" x2="280.997" y2="2505" stroke="white" stroke-opacity="0.15"/>
<line x1="321.494" y1="3340" x2="321.494" y2="2505" stroke="white" stroke-opacity="0.15"/>
<line x1="360.5" y1="3340" x2="360.5" y2="2505" stroke="white" stroke-opacity="0.15"/>
<line x1="400.997" y1="3340" x2="400.997" y2="2505" stroke="white" stroke-opacity="0.15"/>
<line x1="440.997" y1="3340" x2="440.997" y2="2505" stroke="white" stroke-opacity="0.15"/>
<line x1="481.494" y1="3340" x2="481.494" y2="2505" stroke="white" stroke-opacity="0.15"/>
<line x1="520.997" y1="3340" x2="520.997" y2="2505" stroke="white" stroke-opacity="0.15"/>
<line x1="561.494" y1="3340" x2="561.494" y2="2505" stroke="white" stroke-opacity="0.15"/>
<line x1="601.494" y1="3340" x2="601.494" y2="2505" stroke="white" stroke-opacity="0.15"/>
<line x1="641.991" y1="3340" x2="641.991" y2="2505" stroke="white" stroke-opacity="0.15"/>
<line x1="682.5" y1="3340" x2="682.5" y2="2505" stroke="white" stroke-opacity="0.15"/>
<line x1="722.997" y1="3340" x2="722.997" y2="2505" stroke="white" stroke-opacity="0.15"/>
<line x1="762.997" y1="3340" x2="762.997" y2="2505" stroke="white" stroke-opacity="0.15"/>
<line x1="803.494" y1="3340" x2="803.494" y2="2505" stroke="white" stroke-opacity="0.15"/>
<line x1="842.997" y1="3340" x2="842.997" y2="2505" stroke="white" stroke-opacity="0.15"/>
<line x1="883.494" y1="3340" x2="883.494" y2="2505" stroke="white" stroke-opacity="0.15"/>
<line x1="923.494" y1="3340" x2="923.494" y2="2505" stroke="white" stroke-opacity="0.15"/>
<line x1="963.991" y1="3340" x2="963.991" y2="2505" stroke="white" stroke-opacity="0.15"/>
<line x1="1003" y1="3340" x2="1003" y2="2505" stroke="white" stroke-opacity="0.15"/>
<line x1="1043.49" y1="3340" x2="1043.49" y2="2505" stroke="white" stroke-opacity="0.15"/>
<line x1="1083.49" y1="3340" x2="1083.49" y2="2505" stroke="white" stroke-opacity="0.15"/>
<line x1="1123.99" y1="3340" x2="1123.99" y2="2505" stroke="white" stroke-opacity="0.15"/>
<line x1="1163.49" y1="3340" x2="1163.49" y2="2505" stroke="white" stroke-opacity="0.15"/>
<line x1="1203.99" y1="3340" x2="1203.99" y2="2505" stroke="white" stroke-opacity="0.15"/>
<line x1="1243.99" y1="3340" x2="1243.99" y2="2505" stroke="white" stroke-opacity="0.15"/>
<line x1="1284.49" y1="3340" x2="1284.49" y2="2505" stroke="white" stroke-opacity="0.15"/>
<line x1="1324.5" y1="3340" x2="1324.5" y2="2505" stroke="white" stroke-opacity="0.15"/>
<line x1="1365" y1="3340" x2="1365" y2="2505" stroke="white" stroke-opacity="0.15"/>
<line x1="1404.5" y1="3340" x2="1404.5" y2="2505" stroke="white" stroke-opacity="0.15"/>
<line y1="2545" x2="1440" y2="2545" stroke="white" stroke-opacity="0.15"/>
<line y1="2585.5" x2="1440" y2="2585.5" stroke="white" stroke-opacity="0.15"/>
<line y1="2624.5" x2="1440" y2="2624.5" stroke="white" stroke-opacity="0.15"/>
<line y1="2665" x2="1440" y2="2665" stroke="white" stroke-opacity="0.15"/>
<line y1="2705.5" x2="1440" y2="2705.5" stroke="white" stroke-opacity="0.15"/>
<line y1="2746" x2="1440" y2="2746" stroke="white" stroke-opacity="0.15"/>
<line y1="2785" x2="1440" y2="2785" stroke="white" stroke-opacity="0.15"/>
<line y1="2825.5" x2="1440" y2="2825.5" stroke="white" stroke-opacity="0.15"/>
<line y1="2865.5" x2="1440" y2="2865.5" stroke="white" stroke-opacity="0.15"/>
<line y1="2906" x2="1440" y2="2906" stroke="white" stroke-opacity="0.15"/>
<line y1="2945" x2="1440" y2="2945" stroke="white" stroke-opacity="0.15"/>
<line y1="2985.5" x2="1440" y2="2985.5" stroke="white" stroke-opacity="0.15"/>
<line y1="3026" x2="1440" y2="3026" stroke="white" stroke-opacity="0.15"/>
<line y1="3066.5" x2="1440" y2="3066.5" stroke="white" stroke-opacity="0.15"/>
<line y1="3105.5" x2="1440" y2="3105.5" stroke="white" stroke-opacity="0.15"/>
<line y1="3146" x2="1440" y2="3146" stroke="white" stroke-opacity="0.15"/>
<line y1="3186.5" x2="1440" y2="3186.5" stroke="white" stroke-opacity="0.15"/>
<line y1="3227" x2="1440" y2="3227" stroke="white" stroke-opacity="0.15"/>
<line y1="3266" x2="1440" y2="3266" stroke="white" stroke-opacity="0.15"/>
<line y1="3306.5" x2="1440" y2="3306.5" stroke="white" stroke-opacity="0.15"/>
<line y1="2505.5" x2="1440" y2="2505.5" stroke="white" stroke-opacity="0.15"/>
</g>
<g clip-path="url(#clip4_112_162)">
<line x1="40.0029" y1="4175" x2="40.0029" y2="3340" stroke="white" stroke-opacity="0.15"/>
<line x1="80.5" y1="4175" x2="80.5" y2="3340" stroke="white" stroke-opacity="0.15"/>
<line x1="120.5" y1="4175" x2="120.5" y2="3340" stroke="white" stroke-opacity="0.15"/>
<line x1="160.997" y1="4175" x2="160.997" y2="3340" stroke="white" stroke-opacity="0.15"/>
<line x1="200.5" y1="4175" x2="200.5" y2="3340" stroke="white" stroke-opacity="0.15"/>
<line x1="240.997" y1="4175" x2="240.997" y2="3340" stroke="white" stroke-opacity="0.15"/>
<line x1="280.997" y1="4175" x2="280.997" y2="3340" stroke="white" stroke-opacity="0.15"/>
<line x1="321.494" y1="4175" x2="321.494" y2="3340" stroke="white" stroke-opacity="0.15"/>
<line x1="360.5" y1="4175" x2="360.5" y2="3340" stroke="white" stroke-opacity="0.15"/>
<line x1="400.997" y1="4175" x2="400.997" y2="3340" stroke="white" stroke-opacity="0.15"/>
<line x1="440.997" y1="4175" x2="440.997" y2="3340" stroke="white" stroke-opacity="0.15"/>
<line x1="481.494" y1="4175" x2="481.494" y2="3340" stroke="white" stroke-opacity="0.15"/>
<line x1="520.997" y1="4175" x2="520.997" y2="3340" stroke="white" stroke-opacity="0.15"/>
<line x1="561.494" y1="4175" x2="561.494" y2="3340" stroke="white" stroke-opacity="0.15"/>
<line x1="601.494" y1="4175" x2="601.494" y2="3340" stroke="white" stroke-opacity="0.15"/>
<line x1="641.991" y1="4175" x2="641.991" y2="3340" stroke="white" stroke-opacity="0.15"/>
<line x1="682.5" y1="4175" x2="682.5" y2="3340" stroke="white" stroke-opacity="0.15"/>
<line x1="722.997" y1="4175" x2="722.997" y2="3340" stroke="white" stroke-opacity="0.15"/>
<line x1="762.997" y1="4175" x2="762.997" y2="3340" stroke="white" stroke-opacity="0.15"/>
<line x1="803.494" y1="4175" x2="803.494" y2="3340" stroke="white" stroke-opacity="0.15"/>
<line x1="842.997" y1="4175" x2="842.997" y2="3340" stroke="white" stroke-opacity="0.15"/>
<line x1="883.494" y1="4175" x2="883.494" y2="3340" stroke="white" stroke-opacity="0.15"/>
<line x1="923.494" y1="4175" x2="923.494" y2="3340" stroke="white" stroke-opacity="0.15"/>
<line x1="963.991" y1="4175" x2="963.991" y2="3340" stroke="white" stroke-opacity="0.15"/>
<line x1="1003" y1="4175" x2="1003" y2="3340" stroke="white" stroke-opacity="0.15"/>
<line x1="1043.49" y1="4175" x2="1043.49" y2="3340" stroke="white" stroke-opacity="0.15"/>
<line x1="1083.49" y1="4175" x2="1083.49" y2="3340" stroke="white" stroke-opacity="0.15"/>
<line x1="1123.99" y1="4175" x2="1123.99" y2="3340" stroke="white" stroke-opacity="0.15"/>
<line x1="1163.49" y1="4175" x2="1163.49" y2="3340" stroke="white" stroke-opacity="0.15"/>
<line x1="1203.99" y1="4175" x2="1203.99" y2="3340" stroke="white" stroke-opacity="0.15"/>
<line x1="1243.99" y1="4175" x2="1243.99" y2="3340" stroke="white" stroke-opacity="0.15"/>
<line x1="1284.49" y1="4175" x2="1284.49" y2="3340" stroke="white" stroke-opacity="0.15"/>
<line x1="1324.5" y1="4175" x2="1324.5" y2="3340" stroke="white" stroke-opacity="0.15"/>
<line x1="1365" y1="4175" x2="1365" y2="3340" stroke="white" stroke-opacity="0.15"/>
<line x1="1404.5" y1="4175" x2="1404.5" y2="3340" stroke="white" stroke-opacity="0.15"/>
<line y1="3380" x2="1440" y2="3380" stroke="white" stroke-opacity="0.15"/>
<line y1="3420.5" x2="1440" y2="3420.5" stroke="white" stroke-opacity="0.15"/>
<line y1="3459.5" x2="1440" y2="3459.5" stroke="white" stroke-opacity="0.15"/>
<line y1="3500" x2="1440" y2="3500" stroke="white" stroke-opacity="0.15"/>
<line y1="3540.5" x2="1440" y2="3540.5" stroke="white" stroke-opacity="0.15"/>
<line y1="3581" x2="1440" y2="3581" stroke="white" stroke-opacity="0.15"/>
<line y1="3620" x2="1440" y2="3620" stroke="white" stroke-opacity="0.15"/>
<line y1="3660.5" x2="1440" y2="3660.5" stroke="white" stroke-opacity="0.15"/>
<line y1="3700.5" x2="1440" y2="3700.5" stroke="white" stroke-opacity="0.15"/>
<line y1="3741" x2="1440" y2="3741" stroke="white" stroke-opacity="0.15"/>
<line y1="3780" x2="1440" y2="3780" stroke="white" stroke-opacity="0.15"/>
<line y1="3820.5" x2="1440" y2="3820.5" stroke="white" stroke-opacity="0.15"/>
<line y1="3861" x2="1440" y2="3861" stroke="white" stroke-opacity="0.15"/>
<line y1="3901.5" x2="1440" y2="3901.5" stroke="white" stroke-opacity="0.15"/>
<line y1="3940.5" x2="1440" y2="3940.5" stroke="white" stroke-opacity="0.15"/>
<line y1="3981" x2="1440" y2="3981" stroke="white" stroke-opacity="0.15"/>
<line y1="4021.5" x2="1440" y2="4021.5" stroke="white" stroke-opacity="0.15"/>
<line y1="3340.5" x2="1440" y2="3340.5" stroke="white" stroke-opacity="0.15"/>
</g>
<defs>
<clipPath id="clip0_112_162">
<rect width="1440" height="835" fill="white"/>
</clipPath>
<clipPath id="clip1_112_162">
<rect width="1440" height="835" fill="white" transform="translate(0 835)"/>
</clipPath>
<clipPath id="clip2_112_162">
<rect width="1440" height="835" fill="white" transform="translate(0 1670)"/>
</clipPath>
<clipPath id="clip3_112_162">
<rect width="1440" height="835" fill="white" transform="translate(0 2505)"/>
</clipPath>
<clipPath id="clip4_112_162">
<rect width="1440" height="835" fill="white" transform="translate(0 3340)"/>
</clipPath>
</defs>
</svg>
