<svg width="120" height="120" viewBox="0 0 120 120" fill="none" xmlns="http://www.w3.org/2000/svg">
<path d="M60 12C33.492 12 12 33.492 12 60C12 82.492 27.488 101.312 48.368 106.52C48.144 105.872 48 105.12 48 104.188V95.984C46.052 95.984 42.788 95.984 41.968 95.984C38.684 95.984 35.764 94.572 34.348 91.948C32.776 89.032 32.504 84.572 28.608 81.844C27.452 80.936 28.332 79.9 29.664 80.04C32.124 80.736 34.164 82.424 36.084 84.928C37.996 87.436 38.896 88.004 42.468 88.004C44.2 88.004 46.792 87.904 49.232 87.52C50.544 84.188 52.812 81.12 55.584 79.672C39.6 78.028 31.972 70.076 31.972 59.28C31.972 54.632 33.952 50.136 37.316 46.348C36.212 42.588 34.824 34.92 37.74 32C44.932 32 49.28 36.664 50.324 37.924C53.908 36.696 57.844 36 61.98 36C66.124 36 70.076 36.696 73.668 37.932C74.7 36.68 79.052 32 86.26 32C89.188 34.924 87.784 42.624 86.668 46.376C90.012 50.156 91.98 54.64 91.98 59.28C91.98 70.068 84.364 78.016 68.404 79.668C72.796 81.96 76 88.4 76 93.252V104.188C76 104.604 75.908 104.904 75.86 105.26C94.564 98.704 108 80.944 108 60C108 33.492 86.508 12 60 12Z" fill="#FFC0FF"/>
</svg>
