<svg width="120" height="120" viewBox="0 0 120 120" fill="none" xmlns="http://www.w3.org/2000/svg">
<path d="M60 12C33.492 12 12 33.492 12 60C12 86.508 33.492 108 60 108C86.508 108 108 86.508 108 60C108 33.492 86.508 12 60 12ZM41.984 33.612C45.352 33.612 47.596 35.856 47.596 38.848C47.596 41.84 45.352 44.084 41.612 44.084C38.244 44.088 36 41.84 36 38.848C36 35.856 38.244 33.612 41.984 33.612ZM48 80H36V48H48V80ZM88 80H76.704V62.512C76.704 57.676 73.692 56.56 72.564 56.56C71.436 56.56 67.668 57.304 67.668 62.512C67.668 63.256 67.668 80 67.668 80H56V48H67.672V52.464C69.176 49.86 72.188 48 77.836 48C83.484 48 88 52.464 88 62.512V80Z" fill="#FFC0FF"/>
</svg>
